<svg width="260" height="60" fill="none" xmlns="http://www.w3.org/2000/svg"><g clip-path="url(#a)" fill="#386DBD"><path d="m47.016 21.259.119.127a30 30 0 0 0 .733-1.59 19.554 19.554 0 0 0-6.637-4.426l-.163-.065c-.006.577-.029 1.155-.069 1.732l.158.068a17.903 17.903 0 0 1 5.86 4.154ZM49.074 15.823l.137.118c.027-.1.056-.199.082-.299.16-.607.298-1.216.42-1.827l-.144-.113a25.381 25.381 0 0 0-8.89-4.516l-.175-.046.089.46c.1.555.181 1.113.25 1.672l.172.054a23.322 23.322 0 0 1 8.06 4.497ZM50.079 9.589l.157.105c.05-.897.06-1.796.03-2.696a37.725 37.725 0 0 0-.77-.46A31.023 31.023 0 0 0 38.65 2.724l-.19-.03c.362.812.688 1.638.977 2.478.062.012.123.023.184.036a28.785 28.785 0 0 1 10.458 4.381ZM48.947 30.77l.04.169c.486-.323.962-.66 1.43-1.01l-.046-.17a19.558 19.558 0 0 0-3.49-6.982l-.107-.138c-.295.497-.603.986-.927 1.466l.103.138a17.92 17.92 0 0 1 2.997 6.527ZM53.447 27.09l.06.171.22-.217c.442-.446.867-.905 1.277-1.373l-.068-.17a25.376 25.376 0 0 0-5.441-8.356l-.128-.127a29.963 29.963 0 0 1-.772 2.016l.12.133a23.326 23.326 0 0 1 4.732 7.924ZM57.434 22.194c.028.057.057.113.084.17.492-.752.95-1.525 1.373-2.32a35.106 35.106 0 0 0-.436-.784 31.027 31.027 0 0 0-7.485-8.725l-.151-.121a29.893 29.893 0 0 1-.392 2.635 28.788 28.788 0 0 1 7.007 9.145ZM45.865 39.972l-.05.166c.582-.036 1.163-.09 1.743-.16l.046-.17a19.552 19.552 0 0 0 .468-7.79l-.024-.174c-.504.284-1.015.553-1.535.806l.02.172a17.908 17.908 0 0 1-.668 7.15ZM51.601 39.037c-.01.059-.022.118-.034.177l.3-.078c.605-.165 1.203-.35 1.792-.55.01-.06.017-.121.026-.181a25.367 25.367 0 0 0-.534-9.958l-.048-.174c-.117.103-.234.206-.354.307-.43.365-.873.714-1.322 1.053l.038.175a23.326 23.326 0 0 1 .136 9.229ZM57.502 36.79c-.004.063-.007.126-.012.188a29.567 29.567 0 0 0 2.35-1.322 41.643 41.643 0 0 0 .013-.897c0-3.983-.752-7.794-2.12-11.299l-.07-.18a29.913 29.913 0 0 1-1.656 2.086c.02.059.041.117.06.176a28.79 28.79 0 0 1 1.435 11.248ZM38.594 46.4l-.127.12c.523.26 1.053.504 1.59.732.042-.04.083-.082.125-.124a19.551 19.551 0 0 0 4.301-6.513l.066-.162a29.898 29.898 0 0 1-1.733-.07l-.068.159a17.903 17.903 0 0 1-4.154 5.86ZM44.03 48.459l-.117.136a30.385 30.385 0 0 0 2.126.502c.038-.047.075-.096.112-.144a25.373 25.373 0 0 0 4.516-8.89c.017-.058.03-.116.047-.175l-.46.09c-.556.1-1.114.18-1.673.25l-.054.171a23.325 23.325 0 0 1-4.496 8.06ZM50.264 49.463l-.104.158c.897.05 1.796.06 2.695.029a34.978 34.978 0 0 0 .46-.77 31.023 31.023 0 0 0 3.815-10.845l.03-.19c-.812.362-1.638.688-2.479.977l-.035.183a28.782 28.782 0 0 1-4.382 10.458ZM29.085 48.333l-.17.039c.323.486.66.963 1.01 1.43l.17-.045a19.557 19.557 0 0 0 6.982-3.49l.138-.108a29.897 29.897 0 0 1-1.465-.926 17.654 17.654 0 0 1-1.764 1.162 17.92 17.92 0 0 1-4.901 1.938ZM32.764 52.833l-.17.06.216.22c.446.441.905.866 1.373 1.277.057-.022.113-.046.17-.069a25.389 25.389 0 0 0 8.356-5.44l.127-.129c-.147-.05-.295-.1-.442-.153a30 30 0 0 1-1.574-.619l-.133.121a23.322 23.322 0 0 1-7.923 4.732ZM37.66 56.82c-.057.028-.113.057-.17.084.752.492 1.525.95 2.32 1.373a31.542 31.542 0 0 0 .784-.437 31.027 31.027 0 0 0 8.725-7.485l.121-.15a29.936 29.936 0 0 1-2.635-.392c-.04.047-.08.094-.122.14a28.79 28.79 0 0 1-9.023 6.867ZM19.882 45.25l-.166-.05c.037.583.09 1.164.16 1.743l.17.046a19.553 19.553 0 0 0 7.791.469l.173-.025a29.823 29.823 0 0 1-.806-1.535l-.17.02a17.904 17.904 0 0 1-7.15-.668ZM20.818 50.987l-.177-.034.078.3c.165.605.35 1.202.55 1.792.06.01.121.017.181.026a25.367 25.367 0 0 0 9.958-.535l.174-.047c-.103-.117-.206-.235-.307-.354-.365-.43-.714-.873-1.053-1.322l-.175.038a23.327 23.327 0 0 1-9.229.136ZM23.065 56.888l-.189-.012c.404.802.846 1.586 1.323 2.349a31.69 31.69 0 0 0 .896.014c3.984 0 7.794-.752 11.3-2.12l.18-.07a29.887 29.887 0 0 1-2.086-1.657c-.06.02-.118.042-.177.061a28.788 28.788 0 0 1-11.247 1.435ZM13.453 37.98c-.04-.042-.08-.084-.118-.127-.26.523-.505 1.053-.733 1.59.04.042.082.083.124.125a19.55 19.55 0 0 0 6.513 4.3l.162.066c.006-.578.029-1.155.07-1.732a18.102 18.102 0 0 1-1.888-.947 17.903 17.903 0 0 1-4.13-3.275ZM11.396 43.416l-.137-.118c-.027.1-.056.198-.082.298-.16.607-.298 1.217-.42 1.828l.144.112a25.394 25.394 0 0 0 8.89 4.517l.175.046-.089-.46c-.1-.556-.181-1.114-.25-1.672l-.172-.055a23.326 23.326 0 0 1-8.06-4.496ZM10.39 49.65l-.157-.105c-.05.897-.06 1.796-.029 2.696a31.982 31.982 0 0 0 .77.46 31.024 31.024 0 0 0 10.845 3.814l.191.03a29.932 29.932 0 0 1-.978-2.478l-.183-.036A28.785 28.785 0 0 1 10.39 49.65ZM11.52 28.47l-.038-.17c-.487.323-.963.66-1.43 1.01.014.057.03.114.045.17a19.559 19.559 0 0 0 3.49 6.982l.107.138c.295-.497.603-.986.926-1.466a18.088 18.088 0 0 1-1.162-1.764 17.912 17.912 0 0 1-1.937-4.9ZM7.02 32.148l-.06-.17-.22.217a30.45 30.45 0 0 0-1.277 1.373l.069.17a25.375 25.375 0 0 0 5.44 8.355l.129.128c.05-.148.1-.296.153-.443.19-.531.399-1.055.619-1.573l-.121-.133a23.328 23.328 0 0 1-4.732-7.924ZM3.033 37.045c-.028-.057-.057-.113-.084-.17-.492.752-.95 1.525-1.373 2.32a33.428 33.428 0 0 0 .437.784 31.026 31.026 0 0 0 7.485 8.725l.15.121c.092-.884.222-1.763.392-2.635-.047-.04-.094-.08-.14-.122a28.79 28.79 0 0 1-6.867-9.023ZM14.603 19.267l.051-.166c-.583.036-1.164.09-1.743.16l-.046.17a19.553 19.553 0 0 0-.469 7.79l.024.173a29.904 29.904 0 0 1 1.535-.806l-.02-.17a17.904 17.904 0 0 1 .668-7.15ZM8.866 20.203l.034-.178c-.1.026-.2.051-.3.079a30.4 30.4 0 0 0-1.792.55c-.01.06-.017.12-.026.18a25.366 25.366 0 0 0 .534 9.958l.048.174c.117-.103.234-.206.354-.307.43-.364.873-.713 1.322-1.053l-.038-.175a23.326 23.326 0 0 1-.136-9.229ZM2.965 22.45c.004-.063.007-.127.012-.19-.802.405-1.585.846-2.349 1.323a38.797 38.797 0 0 0-.014.897c0 3.983.752 7.794 2.12 11.3l.07.18a29.872 29.872 0 0 1 1.657-2.087c-.02-.058-.042-.117-.061-.176a28.79 28.79 0 0 1-1.435-11.248ZM21.873 12.838c.043-.04.084-.08.127-.118a30.044 30.044 0 0 0-1.59-.733c-.042.04-.083.082-.125.124a19.548 19.548 0 0 0-4.3 6.513l-.066.162c.578.007 1.155.029 1.732.07l.069-.159a17.903 17.903 0 0 1 4.154-5.86ZM16.437 10.78l.118-.136c-.1-.028-.198-.056-.298-.082a30.31 30.31 0 0 0-1.828-.42c-.038.047-.075.096-.112.144a25.384 25.384 0 0 0-4.517 8.89l-.046.174c.153-.03.306-.06.46-.088.556-.101 1.114-.182 1.672-.251l.055-.171a23.329 23.329 0 0 1 4.496-8.06ZM10.204 9.775l.104-.157a29.54 29.54 0 0 0-2.695-.03 34.013 34.013 0 0 0-.46.77 31.022 31.022 0 0 0-3.815 10.846l-.029.19c.811-.362 1.638-.689 2.478-.978l.035-.183a28.795 28.795 0 0 1 4.382-10.458ZM31.384 10.906l.17-.04c-.323-.486-.66-.962-1.01-1.43l-.17.046a19.559 19.559 0 0 0-6.982 3.49l-.138.107c.497.295.986.603 1.465.926l.139-.102a17.918 17.918 0 0 1 6.527-2.997ZM27.705 6.405l.17-.059c-.072-.073-.143-.147-.217-.22a30.443 30.443 0 0 0-1.373-1.277l-.169.068a25.376 25.376 0 0 0-8.356 5.441l-.128.128c.148.05.296.1.443.153.532.19 1.055.4 1.574.62l.132-.122a23.328 23.328 0 0 1 7.924-4.732ZM22.809 2.419c.056-.028.113-.057.17-.084a29.593 29.593 0 0 0-2.32-1.373 38.083 38.083 0 0 0-.784.436 31.024 31.024 0 0 0-8.726 7.485l-.12.15c.883.092 1.762.223 2.634.393.041-.047.081-.095.123-.141a28.79 28.79 0 0 1 9.023-6.866ZM40.588 13.988l.166.05a29.904 29.904 0 0 0-.16-1.743l-.17-.046a19.553 19.553 0 0 0-7.79-.468l-.174.024c.283.504.553 1.015.806 1.535l.171-.02a17.904 17.904 0 0 1 7.15.668ZM39.652 8.251l.177.034c-.026-.1-.05-.2-.078-.299a30.4 30.4 0 0 0-.55-1.793l-.181-.025a25.366 25.366 0 0 0-9.958.534l-.174.047c.103.118.206.235.307.354.365.43.714.874 1.053 1.323l.176-.038a23.326 23.326 0 0 1 9.228-.137ZM37.405 2.35l.189.012A29.521 29.521 0 0 0 36.27.013 39.006 39.006 0 0 0 35.374 0c-3.983 0-7.794.752-11.299 2.119l-.18.07c.72.521 1.416 1.074 2.086 1.657l.176-.061A28.788 28.788 0 0 1 37.405 2.35Z"/></g><path d="m89.535 32.205-5.034-8.647H80.77v8.647h-4.916V7.33h9.95c2.31 0 4.264.83 5.863 2.429 1.6 1.599 2.429 3.553 2.429 5.804 0 3.08-1.896 5.922-4.798 7.225l5.508 9.358h-5.27v.06ZM80.83 11.891v7.344h5.034c1.836 0 3.376-1.659 3.376-3.672 0-2.014-1.54-3.672-3.376-3.672H80.83ZM100.492 25.157c.592 2.25 2.25 3.317 5.034 3.317 1.717 0 3.08-.592 3.968-1.777l3.672 2.132c-1.718 2.547-4.323 3.79-7.759 3.79-2.961 0-5.271-.888-7.047-2.665-1.777-1.776-2.665-4.027-2.665-6.692s.888-4.916 2.605-6.692c1.718-1.836 4.028-2.725 6.752-2.725 2.606 0 4.738.889 6.456 2.725 1.717 1.835 2.546 4.027 2.546 6.692 0 .592-.059 1.184-.177 1.895h-13.385Zm9.002-3.553c-.533-2.428-2.31-3.613-4.383-3.613-2.428 0-4.145 1.303-4.679 3.613h9.062ZM126.907 18.82h-4.027v7.403c0 1.895 1.362 1.955 4.027 1.836v4.146c-6.278.71-8.588-1.125-8.588-5.982V18.82h-3.079v-4.383h3.079v-3.612l4.561-1.363v4.975h4.027v4.383ZM144.792 15.859c1.303 1.303 1.895 3.08 1.895 5.39v10.897h-4.56V21.84c0-2.369-1.362-3.672-3.494-3.672-2.369 0-3.909 1.481-3.909 4.383v9.595h-4.561V7.27h4.561v9.12c1.125-1.658 2.902-2.487 5.271-2.487 1.954 0 3.553.652 4.797 1.955ZM150.123 9.462c0-1.54 1.303-2.842 2.783-2.842 1.54 0 2.843 1.303 2.843 2.842 0 1.54-1.303 2.784-2.843 2.784-1.539.06-2.783-1.244-2.783-2.784Zm.533 22.743V14.437h4.56v17.768h-4.56ZM174.109 15.86c1.303 1.302 1.895 3.079 1.895 5.389v10.897h-4.56V21.841c0-2.37-1.362-3.672-3.494-3.672-2.369 0-3.909 1.48-3.909 4.383v9.594h-4.561V14.378h4.561v2.014c1.125-1.658 2.902-2.487 5.271-2.487 1.954 0 3.553.651 4.797 1.954ZM196.319 32.205h-5.331l-6.455-8.054v8.054h-4.56V7.33h4.56v14.925l6.1-7.817h5.449l-7.166 8.765 7.403 9.002ZM213.375 9.64h-11.549v9.18h11.016v2.37h-11.016v11.015h-2.487V7.33h14.036v2.31ZM217.226 10.173c-.652-.651-.652-1.717 0-2.428.651-.651 1.717-.651 2.428 0 .651.651.651 1.718 0 2.428-.711.652-1.777.652-2.428 0Zm.059 22.032V14.438h2.369v17.767h-2.369ZM226.938 17.34c1.125-2.192 2.961-3.258 5.627-3.258v2.25c-3.258 0-5.627 1.836-5.627 5.923v9.89h-2.369V14.379h2.369v2.961ZM240.56 22.078c2.961.77 6.692 1.54 6.692 5.39 0 1.54-.592 2.724-1.836 3.671-1.184.948-2.724 1.422-4.619 1.422-3.435 0-5.923-1.659-6.87-4.087l2.013-1.184c.652 1.836 2.488 2.96 4.857 2.96 2.31 0 4.086-.887 4.086-2.842 0-1.6-1.658-2.487-3.672-3.02-2.961-.77-6.692-1.54-6.692-5.39 0-1.48.592-2.665 1.718-3.613 1.184-.947 2.605-1.48 4.382-1.48 2.902 0 5.212 1.362 6.219 3.612l-1.955 1.126c-.651-1.659-2.072-2.488-4.264-2.488-2.013 0-3.731 1.007-3.731 2.784 0 1.717 1.599 2.606 3.672 3.139ZM259.867 16.688h-5.093v10.779c0 3.08 1.718 2.784 5.093 2.665v2.073c-4.974.77-7.462-.592-7.462-4.738v-10.78h-3.731v-2.25h3.731v-4.264l2.369-.71v4.974h5.093v2.25ZM79.544 49.737h-.99v-7.682h-2.7v-.885h6.39v.885h-2.7v7.682ZM88.902 46.52c0 1.047-.263 1.865-.787 2.455-.525.586-1.25.879-2.175.879-.571 0-1.079-.135-1.522-.404a2.663 2.663 0 0 1-1.026-1.16c-.24-.504-.361-1.094-.361-1.77 0-1.047.26-1.861.781-2.443.52-.586 1.244-.88 2.169-.88.894 0 1.603.3 2.128.897.528.598.793 1.407.793 2.426Zm-4.868 0c0 .82.163 1.445.49 1.875.326.43.806.645 1.44.645.633 0 1.113-.213 1.44-.64.33-.429.495-1.056.495-1.88 0-.816-.165-1.436-.496-1.857-.326-.426-.81-.639-1.451-.639-.634 0-1.112.209-1.435.627-.322.418-.483 1.04-.483 1.87ZM95.833 43.315v.615l-1.183.14c.109.138.206.317.291.54.086.219.129.467.129.744 0 .629-.214 1.13-.642 1.506-.427.375-1.014.562-1.76.562-.19 0-.37-.015-.537-.046-.412.218-.618.494-.618.826 0 .175.072.306.216.392.144.082.39.123.74.123h1.132c.691 0 1.222.147 1.591.44.373.293.56.719.56 1.277 0 .711-.284 1.252-.851 1.623-.568.375-1.396.563-2.484.563-.836 0-1.48-.157-1.936-.47-.45-.312-.676-.753-.676-1.323 0-.39.125-.729.373-1.014.25-.285.599-.479 1.05-.58a1.034 1.034 0 0 1-.414-.346.93.93 0 0 1-.163-.545c0-.234.062-.44.186-.615.124-.176.32-.346.589-.51-.33-.136-.6-.369-.81-.697a2.071 2.071 0 0 1-.31-1.125c0-.703.21-1.244.63-1.623.42-.383 1.015-.574 1.784-.574.334 0 .636.039.904.117h2.21Zm-5.095 7.5c0 .348.146.611.437.791.292.18.71.27 1.254.27.812 0 1.412-.123 1.801-.37.393-.242.589-.572.589-.99 0-.347-.107-.59-.32-.726-.214-.133-.617-.2-1.207-.2h-1.16c-.44 0-.782.106-1.027.317-.245.21-.367.513-.367.908Zm.525-5.443c0 .449.126.789.379 1.02.252.23.604.345 1.055.345.944 0 1.416-.461 1.416-1.383 0-.965-.478-1.447-1.434-1.447-.454 0-.804.123-1.049.369-.245.246-.367.611-.367 1.096ZM99.844 49.854c-.944 0-1.69-.289-2.238-.867-.544-.578-.816-1.381-.816-2.408 0-1.035.252-1.858.757-2.467.51-.61 1.192-.914 2.047-.914.8 0 1.434.265 1.9.797.467.527.7 1.224.7 2.092v.615h-4.402c.02.754.208 1.326.566 1.717.361.39.868.585 1.521.585.688 0 1.368-.144 2.041-.433v.867a4.93 4.93 0 0 1-.974.316c-.303.067-.67.1-1.102.1Zm-.262-5.842c-.513 0-.923.168-1.23.504-.303.336-.482.8-.536 1.395h3.34c0-.614-.136-1.082-.408-1.407-.272-.328-.661-.492-1.166-.492ZM105.913 49.051c.171 0 .337-.011.496-.035.159-.027.286-.054.379-.082v.744c-.105.051-.261.092-.467.123a3.213 3.213 0 0 1-.548.053c-1.236 0-1.853-.654-1.853-1.963v-3.82h-.916v-.469l.916-.404.408-1.371h.559v1.488h1.854v.756h-1.854v3.78c0 .386.092.683.274.89.183.207.434.31.752.31ZM112.443 49.737v-4.154c0-.524-.119-.914-.356-1.172-.237-.258-.608-.387-1.113-.387-.673 0-1.164.184-1.475.55-.307.368-.461.97-.461 1.805v3.358h-.968V40.62h.968v2.76c0 .331-.015.607-.046.826h.058c.19-.309.46-.551.81-.727a2.63 2.63 0 0 1 1.207-.27c.781 0 1.366.188 1.755.563.392.371.589.963.589 1.775v4.19h-.968ZM118.104 49.854c-.945 0-1.691-.289-2.239-.867-.544-.578-.816-1.381-.816-2.408 0-1.035.253-1.858.758-2.467.509-.61 1.191-.914 2.046-.914.801 0 1.434.265 1.901.797.466.527.699 1.224.699 2.092v.615h-4.401c.019.754.208 1.326.565 1.717.362.39.869.585 1.522.585a5.12 5.12 0 0 0 2.04-.433v.867a4.921 4.921 0 0 1-.973.316c-.303.067-.671.1-1.102.1Zm-.263-5.842c-.513 0-.923.168-1.23.504-.303.336-.482.8-.536 1.395h3.341c0-.614-.136-1.082-.409-1.407-.272-.328-.66-.492-1.166-.492ZM125.024 43.198c.284 0 .538.023.764.07l-.134.902a3.296 3.296 0 0 0-.7-.087c-.517 0-.96.21-1.329.632-.366.422-.548.948-.548 1.576v3.446h-.968v-6.422h.799l.11 1.19h.047c.237-.419.523-.74.857-.967.334-.227.702-.34 1.102-.34ZM137.669 49.737h-.979L134.97 44a18.163 18.163 0 0 1-.274-.961c-.101-.387-.154-.62-.158-.698-.085.516-.221 1.08-.408 1.694l-1.667 5.7h-.979l-2.268-8.566h1.049l1.347 5.291c.186.743.322 1.415.408 2.016.105-.715.26-1.414.466-2.098l1.528-5.209h1.049l1.603 5.256c.187.606.344 1.29.473 2.051.073-.555.213-1.23.419-2.027l1.341-5.28h1.05l-2.28 8.567ZM143.837 49.854c-.944 0-1.69-.289-2.238-.867-.545-.578-.817-1.381-.817-2.408 0-1.035.253-1.858.758-2.467.509-.61 1.191-.914 2.047-.914.8 0 1.434.265 1.9.797.466.527.7 1.224.7 2.092v.615h-4.402c.02.754.208 1.326.566 1.717.361.39.868.585 1.521.585.688 0 1.368-.144 2.041-.433v.867a4.93 4.93 0 0 1-.974.316c-.303.067-.67.1-1.102.1Zm-.262-5.842c-.513 0-.923.168-1.23.504-.303.336-.482.8-.537 1.395h3.341c0-.614-.136-1.082-.408-1.407-.272-.328-.661-.492-1.166-.492ZM156.494 43.666c0 .868-.295 1.536-.886 2.004-.587.465-1.428.698-2.524.698h-1.003v3.369h-.991V41.17h2.209c2.13 0 3.195.832 3.195 2.496Zm-4.413 1.846h.892c.878 0 1.514-.142 1.906-.428.393-.285.589-.742.589-1.37 0-.567-.185-.989-.554-1.266-.369-.278-.944-.416-1.726-.416h-1.107v3.48ZM163.653 46.52c0 1.047-.262 1.865-.787 2.455-.525.586-1.249.879-2.174.879-.572 0-1.079-.135-1.522-.404a2.664 2.664 0 0 1-1.026-1.16c-.241-.504-.362-1.094-.362-1.77 0-1.047.261-1.861.782-2.443.52-.586 1.243-.88 2.168-.88.894 0 1.604.3 2.128.897.529.598.793 1.407.793 2.426Zm-4.868 0c0 .82.163 1.445.49 1.875.326.43.806.645 1.44.645.633 0 1.113-.213 1.44-.64.33-.429.495-1.056.495-1.88 0-.816-.165-1.436-.495-1.857-.327-.426-.81-.639-1.452-.639-.633 0-1.111.209-1.434.627-.322.418-.484 1.04-.484 1.87ZM170.573 49.737l-1.171-3.768c-.074-.23-.212-.754-.414-1.57h-.047c-.155.684-.291 1.21-.408 1.582l-1.207 3.756h-1.119l-1.743-6.422h1.014c.412 1.613.725 2.842.939 3.686.217.843.342 1.412.373 1.705h.046c.043-.223.111-.51.204-.862.098-.355.181-.636.251-.843l1.172-3.686h1.049l1.143 3.686c.218.671.365 1.236.443 1.693h.047c.015-.14.056-.358.122-.65.07-.293.476-1.87 1.219-4.729h1.002l-1.766 6.422h-1.149ZM177.348 49.854c-.945 0-1.691-.289-2.239-.867-.544-.578-.816-1.381-.816-2.408 0-1.035.253-1.858.758-2.467.509-.61 1.191-.914 2.046-.914.801 0 1.434.265 1.901.797.466.527.699 1.224.699 2.092v.615h-4.401c.019.754.208 1.326.565 1.717.362.39.869.585 1.522.585a5.12 5.12 0 0 0 2.04-.433v.867a4.921 4.921 0 0 1-.973.316c-.304.067-.671.1-1.102.1Zm-.263-5.842c-.513 0-.923.168-1.23.504-.303.336-.482.8-.536 1.395h3.341c0-.614-.137-1.082-.409-1.407-.272-.328-.66-.492-1.166-.492ZM184.268 43.198c.284 0 .538.023.764.07l-.134.902a3.296 3.296 0 0 0-.7-.087c-.517 0-.96.21-1.329.632-.366.422-.548.948-.548 1.576v3.446h-.968v-6.422h.799l.11 1.19h.047c.237-.419.523-.74.857-.967.334-.227.702-.34 1.102-.34ZM194.878 43.666c0 .868-.295 1.536-.886 2.004-.587.465-1.428.698-2.524.698h-1.003v3.369h-.991V41.17h2.21c2.13 0 3.194.832 3.194 2.496Zm-4.413 1.846h.892c.879 0 1.514-.142 1.907-.428.392-.285.588-.742.588-1.37 0-.567-.184-.989-.553-1.266-.37-.278-.945-.416-1.726-.416h-1.108v3.48ZM202.038 46.52c0 1.047-.263 1.865-.787 2.455-.525.586-1.25.879-2.175.879-.571 0-1.079-.135-1.522-.404a2.664 2.664 0 0 1-1.026-1.16c-.241-.504-.361-1.094-.361-1.77 0-1.047.26-1.861.781-2.443.521-.586 1.244-.88 2.169-.88.894 0 1.603.3 2.128.897.528.598.793 1.407.793 2.426Zm-4.868 0c0 .82.163 1.445.489 1.875.327.43.807.645 1.44.645.634 0 1.114-.213 1.44-.64.331-.429.496-1.056.496-1.88 0-.816-.165-1.436-.496-1.857-.326-.426-.81-.639-1.451-.639-.634 0-1.112.209-1.434.627-.323.418-.484 1.04-.484 1.87ZM205.804 49.051c.171 0 .336-.011.495-.035a3.48 3.48 0 0 0 .379-.082v.744c-.105.051-.26.092-.466.123a3.222 3.222 0 0 1-.548.053c-1.236 0-1.854-.654-1.854-1.963v-3.82h-.915v-.469l.915-.404.408-1.371h.56v1.488h1.854v.756h-1.854v3.78c0 .386.091.683.274.89.182.207.433.31.752.31ZM210.66 49.854c-.944 0-1.691-.289-2.239-.867-.544-.578-.816-1.381-.816-2.408 0-1.035.253-1.858.758-2.467.509-.61 1.191-.914 2.046-.914.801 0 1.435.265 1.901.797.466.527.7 1.224.7 2.092v.615h-4.402c.019.754.208 1.326.566 1.717.361.39.868.585 1.521.585.688 0 1.368-.144 2.041-.433v.867a4.93 4.93 0 0 1-.974.316c-.303.067-.67.1-1.102.1Zm-.262-5.842c-.513 0-.923.168-1.23.504-.303.336-.482.8-.537 1.395h3.341c0-.614-.136-1.082-.408-1.407-.272-.328-.661-.492-1.166-.492ZM219.038 49.737v-4.154c0-.524-.119-.914-.356-1.172-.237-.258-.608-.387-1.113-.387-.669 0-1.159.182-1.47.545-.31.363-.466.963-.466 1.799v3.369h-.968v-6.422h.787l.158.879h.046c.199-.317.477-.56.834-.733a2.673 2.673 0 0 1 1.195-.263c.77 0 1.349.187 1.738.562.388.371.583.967.583 1.787v4.19h-.968ZM224.063 49.051c.171 0 .336-.011.496-.035a3.59 3.59 0 0 0 .379-.082v.744c-.105.051-.261.092-.467.123a3.213 3.213 0 0 1-.548.053c-1.236 0-1.854-.654-1.854-1.963v-3.82h-.915v-.469l.915-.404.408-1.371h.56v1.488h1.854v.756h-1.854v3.78c0 .386.091.683.274.89.183.207.434.31.752.31ZM227.188 49.737h-.968v-6.422h.968v6.422Zm-1.049-8.162c0-.223.054-.385.163-.487a.563.563 0 0 1 .408-.158c.155 0 .29.053.402.158.113.106.169.268.169.487 0 .218-.056.383-.169.492a.567.567 0 0 1-.402.158.563.563 0 0 1-.408-.158c-.109-.11-.163-.273-.163-.492ZM233.17 49.737l-.193-.914h-.046c-.319.402-.638.676-.957.82-.314.14-.709.211-1.183.211-.634 0-1.131-.164-1.492-.492-.358-.328-.537-.795-.537-1.4 0-1.297 1.032-1.977 3.096-2.04l1.084-.035v-.398c0-.504-.109-.875-.326-1.113-.214-.243-.558-.364-1.032-.364-.533 0-1.135.164-1.807.492l-.298-.744a4.553 4.553 0 0 1 1.032-.404 4.492 4.492 0 0 1 1.131-.147c.762 0 1.325.17 1.691.51.369.34.554.885.554 1.635v4.383h-.717Zm-2.187-.686c.603 0 1.075-.166 1.417-.498.346-.332.519-.797.519-1.394v-.58l-.968.04c-.769.028-1.325.15-1.667.364-.338.21-.507.541-.507.99 0 .352.105.62.314.803.214.183.511.275.892.275ZM236.854 49.737h-.968V40.62h.968v9.117Z" fill="#000"/><defs><clipPath id="a"><path fill="#fff" transform="translate(.615)" d="M0 0h59.239v59.239H0z"/></clipPath></defs></svg>